<?xml version="1.0" encoding="utf-8"?>
<svg version="1.1" xmlns="http://www.w3.org/2000/svg" xmlns:xlink="http://www.w3.org/1999/xlink" x="0px" y="0px"
	 viewBox="0 0 100 30.1" width="100px" height="30.1px" xml:space="preserve">

	<path fill-rule="evenodd" clip-rule="evenodd" fill="#FCAF17" d="M62,23.6c-5.8,4.3-14.2,6.6-21.5,6.6
		c-10.2,0-19.3-3.8-26.2-10c-0.5-0.5-0.1-1.2,0.6-0.8c7.5,4.4,16.7,7,26.3,7c6.4,0,13.5-1.3,20-4.1C62.2,21.8,63,22.9,62,23.6"/>
	<path fill-rule="evenodd" clip-rule="evenodd" fill="#FCAF17" d="M64.5,20.8c-0.7-1-4.9-0.5-6.8-0.2
		c-0.6,0.1-0.7-0.4-0.1-0.8c3.3-2.3,8.8-1.7,9.4-0.9c0.6,0.8-0.2,6.3-3.3,8.9c-0.5,0.4-0.9,0.2-0.7-0.3
		C63.6,25.7,65.2,21.8,64.5,20.8"/>
	<path fill-rule="evenodd" clip-rule="evenodd" fill="#231F20" d="M57.8,3.3V1c0-0.3,0.3-0.6,0.6-0.6h10.2
		c0.3,0,0.6,0.2,0.6,0.6V3c0,0.3-0.3,0.8-0.8,1.4l-5.3,7.5c2,0,4,0.2,5.8,1.2c0.4,0.2,0.5,0.6,0.5,0.9v2.4c0,0.3-0.4,0.7-0.7,0.5
		c-3.1-1.6-7.3-1.8-10.7,0c-0.4,0.2-0.7-0.2-0.7-0.5v-2.3c0-0.4,0-1,0.4-1.6l6.1-8.8h-5.3C58.1,3.9,57.8,3.6,57.8,3.3"/>
	<path fill-rule="evenodd" clip-rule="evenodd" fill="#231F20" d="M20.7,17.5h-3.1c-0.3,0-0.5-0.2-0.6-0.5V1.1
		c0-0.3,0.3-0.6,0.6-0.6h2.9c0.3,0,0.5,0.2,0.6,0.5v2.1h0.1c0.7-2,2.2-2.9,4.1-2.9c1.9,0,3.1,0.9,4,2.9c0.7-2,2.5-2.9,4.3-2.9
		c1.3,0,2.7,0.5,3.6,1.7c1,1.3,0.8,3.3,0.8,5l0,10c0,0.3-0.3,0.6-0.6,0.6h-3.1c-0.3,0-0.6-0.3-0.6-0.6V8.5c0-0.7,0.1-2.3-0.1-3
		c-0.2-1.1-0.9-1.4-1.8-1.4c-0.8,0-1.5,0.5-1.8,1.3c-0.3,0.8-0.3,2.1-0.3,3v8.4c0,0.3-0.3,0.6-0.6,0.6h-3.1
		c-0.3,0-0.6-0.3-0.6-0.6l0-8.4c0-1.8,0.3-4.4-1.9-4.4c-2.2,0-2.1,2.5-2.1,4.4l0,8.4C21.3,17.2,21,17.5,20.7,17.5"/>
	<path fill-rule="evenodd" clip-rule="evenodd" fill="#231F20" d="M77.9,0.2c4.6,0,7.1,3.9,7.1,9
		c0,4.8-2.7,8.7-7.1,8.7c-4.5,0-7-3.9-7-8.9C70.9,4,73.4,0.2,77.9,0.2 M77.9,3.4c-2.3,0-2.4,3.1-2.4,5c0,1.9,0,6.1,2.4,6.1
		c2.4,0,2.5-3.3,2.5-5.4c0-1.3-0.1-2.9-0.5-4.2C79.6,3.8,78.9,3.4,77.9,3.4"/>
	<path fill-rule="evenodd" clip-rule="evenodd" fill="#231F20" d="M90.9,17.5h-3.1c-0.3,0-0.6-0.3-0.6-0.6l0-15.9
		c0-0.3,0.3-0.5,0.6-0.5h2.9c0.3,0,0.5,0.2,0.6,0.4v2.4h0.1c0.9-2.2,2.1-3.2,4.2-3.2c1.4,0,2.7,0.5,3.6,1.9C100,3.3,100,5.4,100,7
		v10c0,0.3-0.3,0.5-0.6,0.5h-3.1c-0.3,0-0.5-0.2-0.6-0.5V8.3c0-1.7,0.2-4.3-1.9-4.3c-0.7,0-1.4,0.5-1.8,1.3c-0.4,1-0.5,1.9-0.5,3
		v8.6C91.5,17.2,91.3,17.5,90.9,17.5"/>
	<path fill-rule="evenodd" clip-rule="evenodd" fill="#231F20" d="M49.7,9.9c0,1.2,0,2.2-0.6,3.3
		c-0.5,0.9-1.3,1.4-2.1,1.4c-1.2,0-1.9-0.9-1.9-2.2c0-2.6,2.4-3.1,4.6-3.1V9.9z M52.8,17.4c-0.2,0.2-0.5,0.2-0.7,0.1
		c-1-0.9-1.2-1.2-1.8-2.1c-1.7,1.7-2.9,2.2-5.1,2.2c-2.6,0-4.6-1.6-4.6-4.8c0-2.5,1.4-4.2,3.3-5.1c1.7-0.7,4-0.9,5.8-1.1V6.3
		c0-0.7,0.1-1.6-0.4-2.2c-0.4-0.6-1.1-0.8-1.7-0.8c-1.2,0-2.2,0.6-2.5,1.9c-0.1,0.3-0.3,0.6-0.5,0.6l-3-0.3
		c-0.3-0.1-0.5-0.3-0.5-0.6C41.8,1.1,45.1,0,48,0c1.5,0,3.5,0.4,4.7,1.5C54.2,2.9,54,4.8,54,6.9v4.8c0,1.5,0.6,2.1,1.2,2.9
		c0.2,0.3,0.2,0.6,0,0.8C54.6,15.9,53.4,16.9,52.8,17.4L52.8,17.4z"/>
	<path fill-rule="evenodd" clip-rule="evenodd" fill="#231F20" d="M9.1,9.9c0,1.2,0,2.2-0.6,3.3
		C8,14,7.3,14.6,6.4,14.6c-1.2,0-1.9-0.9-1.9-2.2c0-2.6,2.4-3.1,4.6-3.1V9.9z M12.2,17.4c-0.2,0.2-0.5,0.2-0.7,0.1
		c-1-0.9-1.2-1.2-1.8-2.1c-1.7,1.7-2.9,2.2-5.1,2.2C2,17.7,0,16.1,0,12.9c0-2.5,1.4-4.2,3.3-5.1c1.7-0.7,4-0.9,5.8-1.1V6.3
		c0-0.7,0.1-1.6-0.4-2.2C8.4,3.5,7.6,3.3,7,3.3c-1.2,0-2.2,0.6-2.5,1.9C4.5,5.4,4.3,5.7,4,5.7L1,5.4C0.7,5.3,0.4,5.1,0.5,4.7
		C1.2,1.1,4.5,0,7.4,0c1.5,0,3.5,0.4,4.7,1.5c1.5,1.4,1.4,3.3,1.4,5.3v4.8c0,1.5,0.6,2.1,1.2,2.9c0.2,0.3,0.2,0.6,0,0.8
		C14,15.9,12.9,16.9,12.2,17.4L12.2,17.4z"/>
</svg>