<?xml version="1.0" encoding="UTF-8"?>
<svg xmlns="http://www.w3.org/2000/svg" xmlns:xlink="http://www.w3.org/1999/xlink" viewBox="0 0 48 48" version="1.1" width="96px" height="96px">
    <g id="surface1">
    <path style="fill:#1565C0;" d="M 18.699219 13.765625 L 18.703125 13.769531 C 18.808594 13.324219 19.1875 13 19.660156 13 L 33.132813 13 C 33.148438 13 33.164063 12.992188 33.183594 12.992188 C 32.894531 8.214844 28.886719 6 25.351563 6 L 11.878906 6 C 11.402344 6 11.027344 6.335938 10.921875 6.777344 L 10.917969 6.773438 L 5.027344 33.8125 L 5.042969 33.8125 C 5.027344 33.878906 5.003906 33.9375 5.003906 34.007813 C 5.003906 34.5625 5.449219 35 6.003906 35 L 14.074219 35 Z "/>
    <path style="fill:#039BE5;" d="M 33.183594 12.992188 C 33.234375 13.871094 33.179688 14.824219 32.953125 15.875 C 31.671875 21.871094 27.042969 24.992188 21.320313 24.992188 C 21.320313 24.992188 17.847656 24.992188 17.007813 24.992188 C 16.484375 24.992188 16.238281 25.296875 16.125 25.53125 L 14.386719 33.578125 L 14.082031 35.007813 L 14.074219 35.007813 L 12.8125 40.804688 L 12.824219 40.804688 C 12.8125 40.871094 12.785156 40.929688 12.785156 41 C 12.785156 41.554688 13.234375 42 13.785156 42 L 21.117188 42 L 21.132813 41.988281 C 21.605469 41.984375 21.980469 41.644531 22.078125 41.203125 L 22.09375 41.1875 L 23.90625 32.769531 C 23.90625 32.769531 24.03125 31.96875 24.878906 31.96875 C 25.722656 31.96875 29.054688 31.96875 29.054688 31.96875 C 34.777344 31.96875 39.457031 28.863281 40.738281 22.867188 C 42.179688 16.105469 37.359375 13.019531 33.183594 12.992188 Z "/>
    <path style="fill:#283593;" d="M 19.660156 13 C 19.1875 13 18.808594 13.324219 18.703125 13.769531 L 18.699219 13.765625 L 16.125 25.53125 C 16.238281 25.296875 16.484375 24.992188 17.003906 24.992188 C 17.847656 24.992188 21.238281 24.992188 21.238281 24.992188 C 26.964844 24.992188 31.671875 21.871094 32.953125 15.878906 C 33.179688 14.824219 33.234375 13.871094 33.183594 12.996094 C 33.164063 12.992188 33.148438 13 33.132813 13 Z "/>
    </g>
</svg>