<?xml version="1.0" encoding="utf-8"?>
<svg version="1.1" baseProfile="basic" xmlns="http://www.w3.org/2000/svg" xmlns:xlink="http://www.w3.org/1999/xlink" 
	x="0px" y="0px" viewBox="0 0 150 42.9" xml:space="preserve">
<style type="text/css">.st0{fill:#033465;} .st1{fill:#1ECA23;}</style>
<g>
	<path class="st0" d="M67.6,17.6c0,0.8-0.4,1.3-1.3,1.3h-7.6l3.2,1.3h4.4c0.8,0,1.3,0.4,1.3,1.3c0,0.8-0.4,1.3-1.3,1.3H62l-3.6,1.5
		v3c0,0.8-0.4,1.3-1.3,1.3s-1.3-0.4-1.3-1.3v-3.8c0-0.6,0.3-1.1,0.9-1.3l1.8-0.7l-1.8-0.7c-0.6-0.3-0.9-0.7-0.9-1.3v-1.8
		c0-0.3,0.1-0.6,0.4-0.9s0.5-0.4,0.9-0.4h9.3C67.2,16.3,67.6,16.7,67.6,17.6z"/>
	<path class="st0" d="M81.5,26.6c0,1.3-2,2-5.9,2s-5.9-0.7-5.9-2v-8.3c0-1.3,2-2,5.9-2s5.9,0.7,5.9,2V26.6z M79,25.6v-6.4
		c-1.1-0.3-2.2-0.4-3.4-0.4c-1.1,0-2.3,0.2-3.4,0.4v6.3c1.1,0.3,2.2,0.4,3.4,0.4C76.8,26,77.9,25.9,79,25.6z"/>
	<path class="st0" d="M95.5,23.4v3.2c0,1.3-2,2-5.9,2c-1.7,0-3.4-0.3-5-0.8c-0.6-0.2-0.9-0.6-0.9-1.2c0-0.4,0.1-0.7,0.3-0.9
		c0.2-0.3,0.5-0.4,0.9-0.4c0.2,0,0.3,0,0.4,0.1c1.4,0.4,2.8,0.6,4.2,0.6c1.2,0,2.3-0.2,3.4-0.4v-1.4l-8.5-3.6
		c-0.5-0.2-0.8-0.6-0.8-1.2v-1.2c0-1.3,2-2,5.9-2c1.7,0,3.4,0.3,5,0.8c0.6,0.2,0.9,0.6,0.9,1.2c0,0.3-0.1,0.6-0.3,0.9
		c-0.2,0.3-0.5,0.4-0.8,0.4c-0.2,0-0.3,0-0.4-0.1c-1.4-0.4-2.8-0.6-4.3-0.6c-0.8,0-1.6,0.1-2.4,0.2l7.6,3.2
		C95.2,22.4,95.5,22.8,95.5,23.4z"/>
	<path class="st0" d="M109.4,23.4v3.2c0,1.3-2,2-5.9,2c-1.7,0-3.4-0.3-5-0.8c-0.6-0.2-0.9-0.6-0.9-1.2c0-0.4,0.1-0.7,0.3-0.9
		c0.2-0.3,0.5-0.4,0.9-0.4c0.2,0,0.3,0,0.4,0.1c1.4,0.4,2.8,0.6,4.2,0.6c1.2,0,2.3-0.2,3.4-0.4v-1.4l-8.5-3.6
		c-0.5-0.2-0.8-0.6-0.8-1.2v-1.2c0-1.3,2-2,5.9-2c1.7,0,3.4,0.3,5,0.8c0.6,0.2,0.9,0.6,0.9,1.2c0,0.3-0.1,0.6-0.3,0.9
		c-0.2,0.3-0.5,0.4-0.8,0.4c-0.2,0-0.3,0-0.4-0.1c-1.4-0.4-2.8-0.6-4.3-0.6c-0.8,0-1.6,0.1-2.4,0.2l7.6,3.2
		C109.2,22.4,109.4,22.8,109.4,23.4z"/>
	<path class="st0" d="M123,27.5c0,0.6-0.3,0.8-0.8,0.8c-0.6,0-0.8-0.3-0.8-0.8v-5.3h-8.2v5.3c0,0.6-0.3,0.8-0.8,0.8
		c-0.5,0-0.8-0.3-0.8-0.8V17.3c0-0.6,0.3-0.8,0.8-0.8c0.5,0,0.8,0.3,0.8,0.8v3.3h8.2v-3.3c0-0.6,0.3-0.8,0.8-0.8
		c0.5,0,0.8,0.3,0.8,0.8V27.5z"/>
	<path class="st0" d="M136.5,26.8c0,0.6-0.8,1-2.4,1.2c-1.1,0.2-2.2,0.3-3.3,0.3c-1.1,0-2.2-0.1-3.3-0.3c-1.6-0.3-2.4-0.7-2.4-1.2
		v-9.4c0-0.6,0.3-0.8,0.8-0.8c0.5,0,0.8,0.3,0.8,0.8v8.8c1.3,0.4,2.7,0.5,4.1,0.5s2.7-0.2,4.1-0.6v-8.8c0-0.6,0.3-0.8,0.8-0.8
		c0.5,0,0.8,0.3,0.8,0.8V26.8z"/>
	<path class="st0" d="M150,23.4v3.3c0,0.6-0.8,1.1-2.5,1.4c-1,0.2-2.1,0.3-3.2,0.3h-4.9c-0.6,0-0.8-0.3-0.8-0.8V17.3
		c0-0.6,0.3-0.8,0.8-0.8h4.9c1.1,0,2.1,0.1,3.2,0.3c1.7,0.3,2.5,0.7,2.5,1.3v1.3c0,0.3-0.2,0.6-0.6,0.8l-3,1.2l3,1.3
		C149.8,22.8,150,23.1,150,23.4z M148.4,18.8v-0.2c-1.3-0.4-2.7-0.6-4.1-0.6h-4.1v2.5h3.9L148.4,18.8z M148.4,26.1V24l-4.3-1.8h-3.9
		v4.5h4.1C145.7,26.7,147,26.5,148.4,26.1z"/>
	<path class="st0" d="M21.5,8.6c7.1,0,12.9,5.8,12.9,12.9s-5.8,12.9-12.9,12.9S8.6,28.6,8.6,21.5S14.4,8.6,21.5,8.6
		 M21.5,0C9.6,0,0,9.6,0,21.5s9.6,21.5,21.5,21.5s21.5-9.6,21.5-21.5S33.3,0,21.5,0L21.5,0z"/>
	<circle class="st1" cx="47.2" cy="38.6" r="4.3"/>
</g>
</svg>