<?xml version="1.0" encoding="utf-8"?>
<!-- Generator: Adobe Illustrator 19.2.1, SVG Export Plug-In . SVG Version: 6.00 Build 0)  -->
<svg version="1.1" id="Layer_1" xmlns="http://www.w3.org/2000/svg" xmlns:xlink="http://www.w3.org/1999/xlink" x="0px" y="0px"
	 viewBox="0 0 430 425" style="enable-background:new 0 0 430 425;" xml:space="preserve">
<style type="text/css">
	.st0{fill:#0077C6;}
	.st1{fill:#FF9F10;}
</style>
<path class="st0" d="M418.6,189.1c-1.1-7.6-8.2-13.8-15.8-13.8h-39.6c-7.7,0-15.6-4.9-17.7-10.9c-2.1-6-4.9-25.1,0.5-30.6l28-28
	c5.4-5.4,5.8-14.7,0.9-20.6l-32.9-33c-5.9-4.9-15.1-4.5-20.6,0.9l-31,30.8l-0.1,63.1v66c-0.3,41.2-34.2,74.4-75.5,74.4
	c-41.3,0-75.2-33.1-75.5-74.4v-66v-63c-1.3-0.5-31.1-30.9-31.1-30.9c-5.4-5.4-14.7-5.9-20.6-0.9l-32.9,33
	c-4.9,5.9-4.5,15.1,0.9,20.6l28,28c5.4,5.4,7.6,14.5,4.8,20.1c-2.8,5.6-14.4,21.4-22,21.4H26.9c-7.7,0-14.8,6.2-15.8,13.8
	c0,0-1.5,10.7-1.5,23.4c0,12.7,1.5,23.4,1.5,23.4c1,7.6,8.2,13.8,15.8,13.8h39.6c7.7,0,15.6,4.9,17.7,10.9c2.1,6,4.9,25.1-0.5,30.5
	l-28,28c-5.4,5.4-5.8,14.7-0.9,20.6l32.9,33c5.9,4.9,15.1,4.5,20.6-0.9l28-28c5.4-5.4,14.4-7.6,20.1-4.9c5.6,2.8,21.3,14.4,21.3,22
	v39.6c0,7.7,6.2,14.8,13.8,15.8c0,0,10.7,1.4,23.4,1.4c12.7,0,23.4-1.4,23.4-1.4c7.6-1.1,13.8-8.2,13.8-15.8v-39.6
	c0-7.7,4.9-15.6,10.9-17.7c6-2.1,25.1-4.9,30.5,0.5l28,28c5.4,5.4,14.7,5.9,20.6,0.9l32.9-33c4.9-5.9,4.5-15.1-0.9-20.6l-28-28
	c-5.4-5.4-7.6-14.4-4.8-20.1c2.7-5.6,14.3-21.3,22-21.3h39.6c7.7,0,14.8-6.2,15.8-13.8c0,0,1.5-10.7,1.5-23.4
	S418.6,189.1,418.6,189.1"/>
<path class="st1" d="M177.7,24.5v39.6v83.1c1.2-0.7,2.3-1.3,3.5-1.9c0.6-0.3,1.2-0.6,1.8-0.9c1.7-0.8,3.3-1.5,5-2.2
	c1.1-0.4,2.1-0.8,3.2-1.2c0.9-0.3,1.9-0.6,2.8-0.9c1.4-0.4,2.8-0.8,4.2-1.1c0.6-0.1,1.2-0.3,1.9-0.4c2-0.4,4.1-0.7,6.1-0.9
	c0.6-0.1,1.2-0.1,1.8-0.2c2.2-0.2,4.5-0.3,6.8-0.3c2.3,0,4.5,0.1,6.7,0.3c0.6,0,1.2,0.1,1.8,0.2c2.1,0.2,4.1,0.5,6.1,0.9
	c0.6,0.1,1.2,0.3,1.9,0.4c1.4,0.3,2.8,0.7,4.2,1.1c0.9,0.3,1.9,0.6,2.8,0.9c1.1,0.4,2.1,0.8,3.2,1.2c1.7,0.7,3.4,1.4,5,2.2
	c0.6,0.3,1.2,0.6,1.8,0.9c1.2,0.6,2.4,1.2,3.5,1.9V64.1V24.5c0-7.7-6.2-14.8-13.8-15.8c0,0-10.7-1.5-23.4-1.5
	c-12.7,0-23.4,1.5-23.4,1.5C183.9,9.7,177.7,16.8,177.7,24.5"/>
</svg>
