<?xml version="1.0" encoding="utf-8"?>
<svg version="1.1" id="Layer_1" xmlns="http://www.w3.org/2000/svg" xmlns:xlink="http://www.w3.org/1999/xlink" x="0px" y="0px"
	 viewBox="0 0 11113 3500" enable-background="new 0 0 11113 3500" xml:space="preserve">
<g>
	<path opacity="0.25" d="M1568.1,2724.9c14.3,3.8,26.8,10.7,37.5,20.8c10.7,10.1,18.2,22.4,22.3,37l61,213.5
		c4.2,14.5,4.3,28.9,0.5,43.2c-3.8,14.3-10.7,26.8-20.8,37.5c-10.1,10.8-22.4,18.2-37,22.3l-160.3,45.8l15.4,53.9l106.4-30.4
		c6.7-1,13,0.5,18.9,4.3c6,3.8,9.9,9.1,11.8,15.7c1.9,6.6,1.3,13.1-1.7,19.6s-7.6,11-13.8,13.6l-266.7,76.2c-6.7,1-13-0.5-18.9-4.3
		s-9.9-9.1-11.8-15.7c-1.9-6.6-1.3-13.1,1.7-19.6c3-6.4,7.6-11,13.8-13.6l106.4-30.4l-15.4-53.9l-160.3,45.8
		c-14.5,4.2-28.9,4.3-43.2,0.5c-14.3-3.8-26.8-10.7-37.5-20.8c-10.8-10.1-18.2-22.4-22.3-37l-61-213.5c-4.1-14.5-4.3-28.9-0.5-43.2
		c3.8-14.3,10.7-26.8,20.8-37.5c10.1-10.7,22.4-18.2,37-22.3l374.4-107C1539.5,2721.3,1553.9,2721.2,1568.1,2724.9z M1574.1,2798.1
		c-2.1-7.3-6.4-12.8-13.1-16.7c-6.7-3.9-13.6-4.8-20.9-2.7l-374.4,107c-7.3,2.1-12.7,6.5-16.3,13.3c-3.6,6.8-4.4,13.8-2.3,21.1
		l61,213.5c2.1,7.3,6.4,12.8,13.1,16.7c6.7,3.9,13.6,4.8,20.9,2.7l374.4-107c7.3-2.1,12.7-6.5,16.3-13.3c3.6-6.8,4.4-13.8,2.3-21.1
		L1574.1,2798.1z"/>
</g>
<g>
	<path opacity="0.25" d="M499.5,1794.3c5.8,3.2,10.5,7.6,14.1,13.2c3.6,5.6,5.5,11.8,5.7,18.6l3.3,99.8c0.2,6.8-1.3,13.1-4.5,18.9
		c-3.2,5.8-7.6,10.5-13.2,14.1c-5.6,3.6-11.8,5.5-18.6,5.7l-75,2.5l0.8,25.2l49.8-1.6c3,0.3,5.6,1.6,7.8,3.9c2.2,2.3,3.3,5,3.4,8.1
		c0.1,3.1-0.9,5.9-2.9,8.3c-2,2.5-4.5,3.9-7.5,4.4l-124.7,4.1c-3-0.3-5.6-1.6-7.8-3.9c-2.2-2.3-3.3-5-3.4-8.1
		c-0.1-3.1,0.9-5.9,2.9-8.3c2-2.5,4.5-3.9,7.5-4.4l49.8-1.6l-0.8-25.2l-75,2.5c-6.8,0.2-13.1-1.3-18.9-4.5
		c-5.8-3.2-10.5-7.6-14.1-13.2c-3.6-5.6-5.5-11.8-5.7-18.6l-3.3-99.8c-0.2-6.8,1.3-13.1,4.5-18.9c3.2-5.8,7.6-10.5,13.2-14.1
		c5.6-3.6,11.8-5.5,18.6-5.7l175.1-5.8C487.4,1789.6,493.7,1791.1,499.5,1794.3z M494.1,1826.9c-0.1-3.4-1.4-6.3-3.9-8.7
		c-2.5-2.4-5.4-3.6-8.8-3.5l-175.1,5.8c-3.4,0.1-6.3,1.5-8.6,4c-2.3,2.6-3.4,5.6-3.3,9l3.3,99.8c0.1,3.4,1.4,6.3,3.9,8.7
		c2.5,2.4,5.4,3.6,8.8,3.5l175.1-5.8c3.4-0.1,6.3-1.5,8.6-4c2.3-2.6,3.4-5.6,3.3-9L494.1,1826.9z"/>
</g>
<g>
	<path opacity="0.25" d="M4775.3,1980.5c4.4,5,7.2,10.8,8.7,17.2c1.4,6.5,1.1,12.9-1,19.4l-31.2,94.9c-2.1,6.5-5.7,11.9-10.7,16.2
		c-5,4.3-10.8,7.3-17.2,8.7c-6.5,1.5-12.9,1.1-19.4-1l-71.2-23.4l-7.9,23.9l47.3,15.6c2.7,1.3,4.7,3.4,6,6.4
		c1.2,2.9,1.4,5.9,0.4,8.8c-1,2.9-2.8,5.2-5.6,6.9s-5.6,2.2-8.6,1.6l-118.5-39c-2.7-1.3-4.7-3.4-6-6.4c-1.2-2.9-1.4-5.9-0.4-8.8
		c1-2.9,2.8-5.2,5.6-6.9c2.7-1.6,5.6-2.2,8.6-1.6l47.3,15.6l7.9-23.9l-71.2-23.4c-6.5-2.1-11.9-5.7-16.2-10.7
		c-4.4-5-7.3-10.8-8.7-17.2c-1.5-6.5-1.1-12.9,1-19.4l31.2-94.9c2.1-6.5,5.7-11.9,10.7-16.2c5-4.4,10.8-7.2,17.2-8.7
		c6.5-1.4,12.9-1.1,19.4,1l166.4,54.8C4765.6,1971.9,4771,1975.5,4775.3,1980.5z M4759.1,2009.2c1.1-3.2,0.8-6.4-0.7-9.5
		c-1.5-3.1-3.9-5.2-7.1-6.3l-166.4-54.8c-3.2-1.1-6.4-0.8-9.4,0.8c-3.1,1.6-5.1,4.1-6.2,7.3l-31.2,94.9c-1.1,3.2-0.8,6.4,0.7,9.5
		c1.5,3.1,3.9,5.2,7.1,6.3l166.4,54.8c3.2,1.1,6.4,0.8,9.4-0.8c3.1-1.6,5.1-4,6.2-7.3L4759.1,2009.2z"/>
</g>
<g>
	<path opacity="0.25" d="M9181.7,2410.6c4.9,4.4,8.5,9.8,10.7,16c2.2,6.3,2.7,12.7,1.4,19.4l-19.4,98c-1.3,6.7-4.2,12.5-8.6,17.4
		c-4.4,4.9-9.8,8.5-16,10.7c-6.3,2.2-12.7,2.7-19.4,1.4l-73.6-14.6l-4.9,24.7l48.9,9.7c2.9,1,5.1,2.8,6.7,5.6
		c1.6,2.8,2.1,5.7,1.5,8.7c-0.6,3-2.2,5.5-4.7,7.5c-2.5,1.9-5.3,2.8-8.3,2.6l-122.4-24.2c-2.9-1-5.1-2.8-6.7-5.6
		c-1.6-2.8-2.1-5.7-1.5-8.7c0.6-3,2.2-5.5,4.7-7.5c2.5-1.9,5.3-2.8,8.3-2.6l48.9,9.7l4.9-24.7l-73.6-14.6
		c-6.7-1.3-12.5-4.2-17.4-8.6c-4.9-4.4-8.5-9.8-10.7-16c-2.2-6.3-2.7-12.7-1.4-19.4l19.4-98c1.3-6.7,4.2-12.5,8.6-17.4
		c4.4-4.9,9.8-8.5,16-10.7c6.3-2.2,12.7-2.7,19.4-1.4l171.9,34C9171,2403.3,9176.8,2406.2,9181.7,2410.6z M9169.1,2441.2
		c0.7-3.3,0.1-6.5-1.8-9.4c-1.9-2.9-4.5-4.7-7.8-5.4l-171.9-34c-3.3-0.7-6.4,0-9.3,2c-2.8,2-4.6,4.6-5.2,8l-19.4,98
		c-0.7,3.3-0.1,6.5,1.8,9.4c1.9,2.9,4.5,4.7,7.8,5.4l171.9,34c3.3,0.7,6.4,0,9.3-2c2.8-2,4.6-4.6,5.2-8L9169.1,2441.2z"/>
</g>
<g>
	<path opacity="0.25" d="M10098.2,2856.1c9.5,2.5,17.9,7.2,25.1,13.9c7.2,6.8,12.2,15,14.9,24.7l40.8,142.7
		c2.8,9.7,2.9,19.3,0.4,28.9c-2.5,9.5-7.2,17.9-13.9,25.1c-6.8,7.2-15,12.2-24.7,14.9l-107.2,30.6l10.3,36l71.2-20.3
		c4.5-0.6,8.7,0.3,12.6,2.9c4,2.6,6.6,6.1,7.9,10.5c1.3,4.4,0.9,8.8-1.1,13.1c-2,4.3-5.1,7.3-9.2,9.1l-178.3,50.9
		c-4.4,0.6-8.7-0.3-12.6-2.9c-4-2.6-6.6-6.1-7.9-10.5c-1.3-4.4-0.9-8.8,1.1-13.1c2-4.3,5.1-7.3,9.2-9.1l71.2-20.3l-10.3-36
		l-107.2,30.6c-9.7,2.8-19.3,2.9-28.9,0.4c-9.5-2.5-17.9-7.2-25.1-13.9c-7.2-6.8-12.2-15-14.9-24.7l-40.8-142.7
		c-2.8-9.7-2.9-19.3-0.4-28.9c2.5-9.5,7.2-17.9,13.9-25.1c6.8-7.2,15-12.2,24.7-14.9l250.3-71.5
		C10079,2853.7,10088.6,2853.5,10098.2,2856.1z M10102.2,2905c-1.4-4.9-4.3-8.6-8.8-11.2c-4.4-2.6-9.1-3.2-14-1.8l-250.3,71.5
		c-4.9,1.4-8.5,4.4-10.9,8.9c-2.4,4.6-2.9,9.3-1.5,14.1l40.8,142.7c1.4,4.9,4.3,8.6,8.8,11.2c4.5,2.6,9.1,3.2,14,1.8l250.3-71.5
		c4.9-1.4,8.5-4.4,10.9-8.9c2.4-4.5,2.9-9.3,1.5-14.1L10102.2,2905z"/>
</g>
<g>
	<path opacity="0.25" d="M6696,2767.6c10.1,6.2,18.2,14.3,24.2,24.6c6,10.2,9,21.4,8.9,33.6l-1.3,178.5c-0.1,12.2-3.2,23.3-9.3,33.4
		c-6.2,10.1-14.3,18.2-24.6,24.2c-10.2,6-21.4,9-33.6,8.9l-134-0.9l-0.3,45l89,0.6c5.4,0.8,9.9,3.3,13.6,7.6
		c3.7,4.3,5.6,9.2,5.5,14.8c0,5.5-1.9,10.4-5.7,14.7c-3.8,4.3-8.4,6.7-13.7,7.4l-223-1.6c-5.4-0.8-9.9-3.3-13.6-7.6
		c-3.7-4.3-5.6-9.2-5.5-14.8c0-5.5,1.9-10.4,5.7-14.7c3.8-4.3,8.4-6.7,13.7-7.4l89,0.6l0.3-45l-134-0.9c-12.2-0.1-23.3-3.2-33.4-9.3
		c-10.1-6.1-18.2-14.3-24.2-24.6c-6-10.2-9-21.4-8.9-33.6l1.3-178.5c0.1-12.1,3.2-23.3,9.3-33.4c6.1-10.1,14.3-18.2,24.6-24.2
		c10.2-6,21.4-9,33.6-8.9l313,2.2C6674.8,2758.4,6685.9,2761.5,6696,2767.6z M6684.1,2825.4c0-6.1-2.1-11.4-6.3-15.9
		c-4.3-4.5-9.4-6.8-15.5-6.8l-313-2.2c-6.1,0-11.3,2.2-15.6,6.6c-4.3,4.4-6.5,9.7-6.5,15.8l-1.3,178.5c0,6.1,2.1,11.4,6.3,15.9
		c4.3,4.5,9.4,6.8,15.5,6.8l313,2.2c6.1,0,11.3-2.1,15.6-6.6c4.3-4.4,6.5-9.7,6.5-15.8L6684.1,2825.4z"/>
</g>
<g>
	<path opacity="0.25" d="M7968,2050c4.2,2.2,7.6,5.3,10.3,9.2c2.7,3.9,4.1,8.3,4.4,13.2l4,71.5c0.3,4.9-0.7,9.4-2.9,13.6
		c-2.2,4.2-5.3,7.7-9.2,10.3c-3.9,2.7-8.3,4.1-13.2,4.4l-53.7,3l1,18l35.6-2c2.2,0.2,4,1.1,5.6,2.7c1.6,1.6,2.5,3.6,2.6,5.8
		c0.1,2.2-0.5,4.2-1.9,6s-3.2,2.9-5.3,3.3l-89.3,5c-2.2-0.2-4-1.1-5.6-2.7c-1.6-1.6-2.5-3.6-2.6-5.8c-0.1-2.2,0.5-4.2,1.9-6
		c1.4-1.8,3.2-2.9,5.3-3.3l35.6-2l-1-18l-53.7,3c-4.9,0.3-9.4-0.7-13.6-2.9c-4.2-2.2-7.7-5.3-10.3-9.2c-2.7-3.9-4.1-8.3-4.4-13.2
		l-4-71.5c-0.3-4.9,0.7-9.4,2.9-13.6c2.2-4.2,5.3-7.6,9.2-10.3c3.9-2.7,8.3-4.1,13.2-4.4l125.3-7
		C7959.3,2046.8,7963.8,2047.8,7968,2050z M7964.7,2073.4c-0.1-2.4-1.1-4.5-2.9-6.2c-1.8-1.7-3.9-2.5-6.4-2.3l-125.3,7
		c-2.4,0.1-4.5,1.1-6.1,3c-1.6,1.9-2.4,4-2.2,6.5l4,71.5c0.1,2.4,1.1,4.5,2.9,6.2c1.8,1.7,3.9,2.5,6.4,2.3l125.3-7
		c2.4-0.1,4.5-1.1,6.1-3c1.6-1.9,2.4-4,2.2-6.5L7964.7,2073.4z"/>
</g>
<g>
	<path opacity="0.25" d="M6547.3,1605.1c6.4,1.7,12,4.8,16.9,9.4c4.8,4.5,8.2,10.1,10.1,16.6l27.4,96.1c1.9,6.5,1.9,13,0.2,19.4
		c-1.7,6.4-4.8,12-9.4,16.9c-4.5,4.8-10.1,8.2-16.6,10.1l-72.1,20.6l6.9,24.2l47.9-13.7c3-0.4,5.8,0.2,8.5,1.9
		c2.7,1.7,4.4,4.1,5.3,7.1c0.9,3,0.6,5.9-0.8,8.8c-1.4,2.9-3.4,4.9-6.2,6.1l-120,34.3c-3,0.4-5.8-0.2-8.5-1.9s-4.4-4.1-5.3-7.1
		c-0.9-3-0.6-5.9,0.8-8.8c1.4-2.9,3.4-4.9,6.2-6.1l47.9-13.7l-6.9-24.2l-72.1,20.6c-6.5,1.9-13,2-19.4,0.2c-6.4-1.7-12-4.8-16.9-9.4
		c-4.8-4.5-8.2-10.1-10.1-16.6l-27.4-96.1c-1.9-6.5-2-13-0.2-19.4c1.7-6.4,4.8-12,9.4-16.9c4.5-4.8,10.1-8.2,16.6-10.1l168.5-48.1
		C6534.4,1603.4,6540.9,1603.4,6547.3,1605.1z M6550,1638c-0.9-3.3-2.9-5.8-5.9-7.5c-3-1.7-6.1-2.1-9.4-1.2l-168.5,48.1
		c-3.3,0.9-5.7,2.9-7.3,6c-1.6,3.1-2,6.2-1,9.5l27.4,96.1c0.9,3.3,2.9,5.8,5.9,7.5c3,1.7,6.1,2.2,9.4,1.2l168.5-48.1
		c3.3-0.9,5.7-2.9,7.3-6c1.6-3.1,2-6.2,1-9.5L6550,1638z"/>
</g>
<g>
	<path opacity="0.25" d="M10260.4,1623.1c1.4,6.5,1.2,12.9-0.6,19.3c-1.8,6.4-5.2,11.9-10.1,16.6l-72.7,68.5
		c-4.9,4.7-10.7,7.7-17.1,9.2c-6.5,1.4-12.9,1.3-19.3-0.6c-6.4-1.8-11.9-5.2-16.6-10.1l-51.5-54.6l-18.3,17.3l34.2,36.2
		c1.8,2.5,2.5,5.3,2.2,8.4c-0.3,3.2-1.6,5.8-3.8,8c-2.3,2.1-5,3.3-8.2,3.4s-6-0.8-8.3-2.7l-85.6-90.8c-1.8-2.5-2.5-5.3-2.2-8.4
		c0.3-3.2,1.6-5.8,3.8-8c2.3-2.1,5-3.2,8.2-3.4s6,0.8,8.3,2.7l34.2,36.2l18.3-17.3l-51.5-54.6c-4.7-4.9-7.7-10.7-9.2-17.1
		c-1.4-6.5-1.3-12.9,0.6-19.3c1.8-6.4,5.2-11.9,10.1-16.6l72.7-68.5c4.9-4.7,10.7-7.7,17.1-9.2c6.5-1.4,12.9-1.2,19.3,0.6
		c6.4,1.8,11.9,5.2,16.6,10.1l120.2,127.5C10255.9,1610.9,10259,1616.6,10260.4,1623.1z M10232.4,1640.6c2.5-2.3,3.8-5.2,4-8.7
		c0.2-3.5-0.9-6.4-3.2-8.9l-120.2-127.5c-2.3-2.5-5.2-3.7-8.7-3.8c-3.5,0-6.4,1.1-8.9,3.5l-72.7,68.5c-2.5,2.3-3.8,5.2-4,8.7
		c-0.2,3.5,0.9,6.4,3.2,8.9l120.2,127.5c2.3,2.5,5.2,3.7,8.7,3.8c3.5,0,6.4-1.1,8.9-3.5L10232.4,1640.6z"/>
</g>
<g>
	<path opacity="0.25" d="M2318,2160.2c5.6,3.6,10,8.2,13.3,14c3.2,5.8,4.8,12.1,4.6,18.9l-2.7,99.9c-0.2,6.8-2.1,13-5.6,18.6
		c-3.6,5.6-8.2,10-14,13.3c-5.8,3.2-12.1,4.8-18.9,4.6l-75-2.1l-0.7,25.2l49.8,1.4c3,0.5,5.5,2,7.5,4.4c2,2.5,3,5.2,2.9,8.3
		c-0.1,3.1-1.2,5.8-3.4,8.2c-2.2,2.3-4.8,3.7-7.8,4l-124.8-3.4c-3-0.5-5.5-2-7.5-4.4c-2-2.5-3-5.2-2.9-8.3c0.1-3.1,1.2-5.8,3.4-8.2
		c2.2-2.3,4.8-3.7,7.8-4l49.8,1.4l0.7-25.2l-75-2.1c-6.8-0.2-13-2.1-18.6-5.6c-5.6-3.6-10-8.2-13.3-14c-3.2-5.8-4.8-12.1-4.6-18.9
		l2.7-99.9c0.2-6.8,2.1-13,5.6-18.6c3.6-5.6,8.2-10,14-13.3c5.8-3.2,12.1-4.8,18.9-4.6l175.1,4.8
		C2306.2,2154.7,2312.4,2156.6,2318,2160.2z M2310.7,2192.4c0.1-3.4-1-6.4-3.4-8.9c-2.3-2.6-5.2-3.9-8.6-4l-175.1-4.8
		c-3.4-0.1-6.3,1.1-8.8,3.5c-2.5,2.4-3.7,5.4-3.8,8.7l-2.7,99.9c-0.1,3.4,1,6.4,3.4,8.9c2.3,2.6,5.2,3.9,8.6,4l175.1,4.8
		c3.4,0.1,6.3-1.1,8.8-3.5c2.5-2.4,3.7-5.3,3.8-8.7L2310.7,2192.4z"/>
</g>
<g>
	<path opacity="0.25" d="M3761.2,2610c6.4,1.7,12,4.8,16.9,9.4c4.8,4.5,8.2,10.1,10.1,16.6l27.4,96.1c1.9,6.5,1.9,13,0.2,19.4
		c-1.7,6.4-4.8,12-9.4,16.9c-4.5,4.8-10.1,8.2-16.6,10.1l-72.1,20.6l6.9,24.2l47.9-13.7c3-0.4,5.8,0.2,8.5,1.9
		c2.7,1.7,4.4,4.1,5.3,7.1c0.9,3,0.6,5.9-0.8,8.8c-1.4,2.9-3.4,4.9-6.2,6.1l-120,34.3c-3,0.4-5.8-0.2-8.5-1.9
		c-2.7-1.7-4.4-4.1-5.3-7.1c-0.9-3-0.6-5.9,0.8-8.8c1.4-2.9,3.4-4.9,6.2-6.1l47.9-13.7l-6.9-24.2l-72.1,20.6c-6.5,1.9-13,2-19.4,0.2
		c-6.4-1.7-12-4.8-16.9-9.4c-4.8-4.5-8.2-10.1-10.1-16.6l-27.4-96.1c-1.9-6.5-2-13-0.2-19.4c1.7-6.4,4.8-12,9.4-16.9
		c4.5-4.8,10.1-8.2,16.6-10.1l168.5-48.1C3748.4,2608.4,3754.8,2608.3,3761.2,2610z M3763.9,2642.9c-0.9-3.3-2.9-5.8-5.9-7.5
		c-3-1.7-6.1-2.1-9.4-1.2l-168.5,48.1c-3.3,0.9-5.7,2.9-7.3,6c-1.6,3.1-2,6.2-1,9.5l27.4,96.1c0.9,3.3,2.9,5.8,5.9,7.5
		c3,1.7,6.1,2.2,9.4,1.2l168.5-48.1c3.3-0.9,5.7-2.9,7.3-6c1.6-3.1,2-6.2,1-9.5L3763.9,2642.9z"/>
</g>
<g>
	<path opacity="0.25" d="M3595.9,1482.5c1.5,3.6,2.1,7.3,1.7,11.2c-0.4,3.9-1.7,7.4-4.1,10.6l-34.6,47.1c-2.4,3.2-5.3,5.6-8.9,7.1
		c-3.6,1.5-7.3,2.1-11.2,1.7c-3.9-0.4-7.4-1.7-10.6-4.1l-35.3-26l-8.7,11.9l23.5,17.3c1.3,1.2,2,2.8,2.1,4.6c0.2,1.9-0.3,3.5-1.4,5
		c-1.1,1.5-2.5,2.4-4.3,2.8c-1.8,0.4-3.5,0.2-5.1-0.7l-58.8-43.2c-1.3-1.2-2-2.8-2.1-4.6c-0.2-1.9,0.3-3.5,1.4-5
		c1.1-1.5,2.5-2.4,4.3-2.8c1.8-0.4,3.5-0.2,5.1,0.7l23.5,17.3l8.7-11.9l-35.3-26c-3.2-2.4-5.6-5.3-7.1-8.9
		c-1.5-3.6-2.1-7.3-1.7-11.2c0.4-3.9,1.7-7.4,4.1-10.6l34.6-47.1c2.4-3.2,5.3-5.6,8.9-7.1c3.6-1.5,7.3-2.1,11.2-1.7
		c3.9,0.4,7.4,1.7,10.6,4.1l82.5,60.7C3592.1,1476,3594.4,1479,3595.9,1482.5z M3581.7,1495.6c1.2-1.6,1.6-3.4,1.4-5.4
		c-0.3-2-1.2-3.6-2.8-4.8l-82.5-60.7c-1.6-1.2-3.4-1.6-5.4-1.2c-2,0.3-3.6,1.3-4.8,2.9l-34.6,47.1c-1.2,1.6-1.6,3.4-1.4,5.4
		c0.3,2,1.2,3.6,2.8,4.8l82.5,60.7c1.6,1.2,3.4,1.6,5.4,1.2c2-0.3,3.6-1.3,4.8-2.9L3581.7,1495.6z"/>
</g>
<g>
	<path opacity="0.25" d="M8398.2,1346c1.8,1.1,3.2,2.6,4.2,4.6l45.8,89.1c1,2,1.4,4,1.3,6.1c-0.2,2.1-0.8,4.1-1.9,6.1
		c-1.1,1.9-2.8,3.5-4.9,4.6c-1.6,0.8-3.4,1.3-5.4,1.4l-49.9,0.7c2.8,6,4,12.2,3.4,18.7c-0.6,6.5-2.7,12.4-6.2,17.8
		c-3.5,5.4-8.2,9.6-14.1,12.6l-100,51.5c-6,3.1-12.4,4.5-19,4c-6.6-0.4-12.8-2.4-18.4-5.9c-5.6-3.5-10-8.3-13.1-14.3l-34.3-66.7
		c-3.1-6-4.5-12.4-4-19c0.4-6.6,2.4-12.7,5.9-18.4c3.5-5.6,8.3-10,14.3-13.1l100-51.5c5.9-3,12-4.4,18.5-4.1
		c6.4,0.3,12.5,2.1,18.1,5.4c5.6,3.3,10,7.8,13.2,13.6l29.3-39.4c1.2-2,2.8-3.5,4.8-4.5c2-1,4.1-1.4,6.4-1.3
		C8394.4,1344.3,8396.4,1344.9,8398.2,1346z M8330.3,1401.9c-1.6-3-4-5.1-7.4-6.2c-3.4-1.1-6.6-0.8-9.6,0.7l-100,51.5
		c-3,1.6-5,4-6,7.3c-1,3.3-0.7,6.5,0.8,9.5l34.3,66.7c1.6,3,4,5.1,7.2,6.2c3.3,1.1,6.4,0.9,9.5-0.6l100-51.5c3-1.6,5.1-4,6.2-7.4
		c1.1-3.4,0.8-6.6-0.7-9.6L8330.3,1401.9z M8389.3,1380.3l-24.8,33.7l10.2,19.7l41.9-0.6L8389.3,1380.3z"/>
</g>
<g>
	<path opacity="0.25" d="M2819.9,3039.6c1.6,1.4,2.8,3.1,3.4,5.2l31.2,95.2c0.7,2.1,0.8,4.2,0.3,6.2c-0.5,2.1-1.4,3.9-2.9,5.7
		c-1.4,1.7-3.3,3-5.6,3.7c-1.7,0.6-3.5,0.7-5.5,0.5l-49.4-7.2c1.9,6.3,2,12.7,0.4,19c-1.6,6.3-4.6,11.9-8.9,16.7
		c-4.3,4.8-9.6,8.2-15.9,10.3l-106.9,35c-6.5,2.1-12.9,2.5-19.4,1c-6.5-1.5-12.2-4.4-17.2-8.7c-5-4.4-8.6-9.8-10.7-16.2l-23.4-71.3
		c-2.1-6.5-2.5-12.9-1-19.4c1.5-6.5,4.4-12.2,8.7-17.2c4.4-5,9.8-8.6,16.2-10.7l106.9-35c6.3-2.1,12.6-2.4,18.9-1.1
		c6.3,1.3,12,4,17,8.1c5,4.1,8.7,9.3,10.9,15.5l35.2-34.3c1.5-1.8,3.3-3,5.4-3.7c2.1-0.7,4.3-0.8,6.5-0.3
		C2816.5,3037.2,2818.3,3038.2,2819.9,3039.6z M2744.1,3084c-1.1-3.2-3.2-5.6-6.3-7.2c-3.2-1.6-6.3-1.9-9.6-0.8l-106.9,35
		c-3.2,1.1-5.6,3.2-7.1,6.3c-1.5,3.1-1.7,6.3-0.7,9.5l23.4,71.3c1.1,3.2,3.1,5.7,6.2,7.3c3.1,1.6,6.2,1.9,9.4,0.9l106.9-35
		c3.2-1.1,5.6-3.2,7.2-6.3c1.6-3.2,1.9-6.3,0.8-9.6L2744.1,3084z M2805.8,3072l-29.8,29.4l6.9,21.1l41.4,6L2805.8,3072z"/>
</g>
<g>
	<path opacity="0.25" d="M10699.7,2258.9c1.1,1.8,1.6,3.8,1.6,6v100.2c0,2.2-0.6,4.2-1.6,6c-1.1,1.8-2.6,3.3-4.5,4.5
		c-1.9,1.2-4,1.8-6.5,1.8c-1.8,0-3.6-0.4-5.4-1.2l-44.7-22.2c-0.2,6.6-2.1,12.7-5.6,18.1c-3.5,5.5-8.1,9.9-13.6,13
		c-5.6,3.2-11.7,4.8-18.3,4.8h-112.5c-6.8,0-13.1-1.7-18.8-5.1c-5.7-3.4-10.3-8-13.7-13.6c-3.4-5.7-5.1-11.9-5.1-18.8v-75
		c0-6.8,1.7-13.1,5.1-18.8c3.4-5.7,8-10.2,13.7-13.7c5.7-3.4,11.9-5.1,18.8-5.1h112.5c6.6,0,12.7,1.6,18.3,4.8
		c5.6,3.2,10.1,7.6,13.6,13.1c3.5,5.5,5.3,11.5,5.6,18.2l44.1-21.6c2-1.2,4.1-1.8,6.3-1.8c2.2,0,4.3,0.6,6.3,1.8
		C10697.1,2255.6,10698.6,2257.1,10699.7,2258.9z M10613.7,2277.5c0-3.4-1.3-6.3-3.8-8.9c-2.5-2.5-5.5-3.8-8.8-3.8h-112.5
		c-3.4,0-6.3,1.3-8.7,3.8c-2.4,2.5-3.6,5.5-3.6,8.9v75c0,3.4,1.2,6.4,3.6,8.8c2.4,2.5,5.3,3.8,8.7,3.8h112.5c3.4,0,6.3-1.2,8.8-3.8
		c2.5-2.5,3.8-5.4,3.8-8.8V2277.5z M10676.1,2285.3l-37.5,18.6v22.2l37.5,18.6V2285.3z"/>
</g>
<g>
	<path opacity="0.25" d="M1977.3,1551.5c0.9,3.3,0.9,6.8-0.1,10.2l-45.4,158.3c-1,3.5-2.8,6.4-5.3,8.7c-2.6,2.3-5.6,4-9.1,5.1
		c-3.6,1-7.2,1-11-0.1c-2.8-0.8-5.5-2.3-8-4.3l-60.5-55.3c-3.3,10.3-9,19.1-17,26.2c-8,7.1-17.2,11.9-27.5,14.4
		c-10.3,2.5-20.7,2.3-31.1-0.7l-177.7-51c-10.7-3.1-19.8-8.6-27.3-16.6c-7.5-8-12.6-17.2-15.4-27.8c-2.8-10.5-2.6-21.2,0.4-31.9
		l34-118.5c3.1-10.7,8.6-19.8,16.6-27.3c8-7.5,17.2-12.6,27.8-15.4c10.5-2.8,21.2-2.6,31.9,0.4l177.7,51c10.4,3,19.3,8.3,26.7,15.9
		c7.4,7.6,12.6,16.5,15.6,26.8c3,10.3,3.2,20.7,0.5,31.2l79.5-14.1c3.7-1,7.3-1,10.8,0c3.5,1,6.5,2.9,9.1,5.7
		C1974.7,1545.1,1976.4,1548.2,1977.3,1551.5z M1833.1,1541.9c1.5-5.4,0.9-10.6-1.9-15.7c-2.8-5.1-6.9-8.4-12.3-9.9l-177.7-51
		c-5.4-1.5-10.5-0.9-15.4,2c-4.9,2.9-8.2,7-9.7,12.3l-34,118.5c-1.5,5.4-1,10.6,1.7,15.6c2.7,5,6.7,8.3,12,9.9l177.7,51
		c5.4,1.5,10.6,0.9,15.7-1.9c5.1-2.8,8.4-6.9,9.9-12.3L1833.1,1541.9z M1928.1,1582.5l-67.7,12.4l-10.1,35.1l50.8,46.4
		L1928.1,1582.5z"/>
</g>
<g>
	<path opacity="0.25" d="M5228.5,2895c0.9,1.9,1.2,4,1,6.1l-11.2,99.6c-0.2,2.2-1,4.1-2.3,5.8c-1.3,1.7-3,3-5,4
		c-2,1-4.2,1.3-6.6,1.1c-1.8-0.2-3.5-0.8-5.2-1.8l-41.9-27c-0.9,6.5-3.5,12.3-7.5,17.4c-4.1,5.1-9.1,8.9-15,11.4
		c-5.9,2.6-12.2,3.5-18.7,2.7l-111.8-12.6c-6.8-0.8-12.8-3.1-18.1-7.2c-5.3-4-9.3-9-12-15.1c-2.7-6-3.7-12.4-3-19.2l8.4-74.5
		c0.8-6.8,3.1-12.8,7.2-18.1c4-5.3,9-9.3,15.1-12c6-2.7,12.4-3.7,19.2-3l111.8,12.6c6.6,0.7,12.4,3,17.6,6.8
		c5.2,3.8,9.2,8.6,12.1,14.5c2.9,5.9,4,12.1,3.5,18.7l46.2-16.5c2.1-1,4.3-1.3,6.5-1.1c2.2,0.2,4.2,1.1,6.1,2.5
		C5226.3,2891.4,5227.6,2893.1,5228.5,2895z M5141,2903.9c0.4-3.4-0.5-6.4-2.7-9.2c-2.2-2.8-5-4.3-8.4-4.7l-111.8-12.6
		c-3.4-0.4-6.4,0.5-9.1,2.8c-2.7,2.2-4.2,5-4.6,8.4l-8.4,74.5c-0.4,3.4,0.5,6.4,2.6,9.2c2.1,2.8,4.8,4.3,8.2,4.7l111.8,12.6
		c3.4,0.4,6.4-0.5,9.2-2.7c2.8-2.2,4.3-5,4.7-8.4L5141,2903.9z M5202.2,2918.6l-39.3,14.3l-2.5,22.1l35.2,22.7L5202.2,2918.6z"/>
</g>
<g>
	<path opacity="0.25" d="M5732.8,1237.6c0.7,1.2,1.1,2.5,1.1,3.9v64.6c0,1.4-0.4,2.7-1.1,3.9c-0.7,1.2-1.7,2.1-2.9,2.9
		c-1.2,0.8-2.6,1.2-4.2,1.2c-1.2,0-2.3-0.3-3.5-0.8l-28.8-14.3c-0.1,4.3-1.3,8.2-3.6,11.7c-2.3,3.5-5.2,6.4-8.8,8.4
		c-3.6,2.1-7.5,3.1-11.8,3.1h-72.5c-4.4,0-8.4-1.1-12.1-3.3c-3.7-2.2-6.6-5.1-8.8-8.8c-2.2-3.7-3.3-7.7-3.3-12.1v-48.4
		c0-4.4,1.1-8.4,3.3-12.1c2.2-3.7,5.1-6.6,8.8-8.8c3.7-2.2,7.7-3.3,12.1-3.3h72.5c4.3,0,8.2,1,11.8,3.1c3.6,2.1,6.5,4.9,8.8,8.4
		c2.3,3.5,3.4,7.4,3.6,11.7l28.4-13.9c1.3-0.8,2.6-1.2,4.1-1.2c1.4,0,2.8,0.4,4.1,1.2C5731.2,1235.5,5732.1,1236.5,5732.8,1237.6z
		 M5677.4,1249.6c0-2.2-0.8-4.1-2.4-5.7c-1.6-1.6-3.5-2.4-5.7-2.4h-72.5c-2.2,0-4.1,0.8-5.6,2.4c-1.5,1.6-2.3,3.5-2.3,5.7v48.4
		c0,2.2,0.8,4.1,2.3,5.7c1.5,1.6,3.4,2.4,5.6,2.4h72.5c2.2,0,4.1-0.8,5.7-2.4c1.6-1.6,2.4-3.5,2.4-5.7V1249.6z M5717.6,1254.6
		l-24.2,12v14.3l24.2,12V1254.6z"/>
</g>
<g>
	<path opacity="0.25" d="M8406.7,2964.9c0.7,3.5,0.4,7-0.9,10.4l-59.2,157.9c-1.3,3.5-3.4,6.3-6.1,8.5c-2.8,2.2-6,3.7-9.7,4.4
		c-3.7,0.8-7.4,0.4-11.2-1c-2.8-1.1-5.4-2.8-7.8-5.1l-57.3-61.4c-4.2,10.3-10.7,18.7-19.5,25.3c-8.8,6.6-18.5,10.8-29.2,12.5
		c-10.7,1.7-21.3,0.6-31.7-3.3l-177.3-66.5c-10.7-4-19.6-10.4-26.5-19.1c-7-8.7-11.5-18.6-13.4-29.6c-2-11-1-21.8,3-32.6l44.3-118.2
		c4-10.7,10.4-19.6,19.1-26.5c8.7-7,18.6-11.4,29.6-13.4c11-2,21.8-1,32.6,3l177.3,66.5c10.4,3.9,19.1,10,26,18.4
		c6.9,8.4,11.5,17.9,13.8,28.6c2.3,10.7,1.6,21.4-2,31.9l82.2-8c3.9-0.7,7.5-0.4,11,0.9c3.5,1.3,6.4,3.5,8.9,6.6
		C8404.6,2958.2,8406,2961.4,8406.7,2964.9z M8260.3,2943.4c2-5.4,1.8-10.7-0.7-16.2c-2.5-5.4-6.4-9.1-11.7-11.1l-177.3-66.5
		c-5.4-2-10.7-1.8-15.9,0.8c-5.3,2.5-8.9,6.5-10.9,11.8l-44.3,118.2c-2,5.4-1.9,10.7,0.4,16.1c2.3,5.4,6.1,9,11.5,11l177.3,66.5
		c5.4,2,10.7,1.8,16.2-0.7c5.4-2.5,9.1-6.4,11.1-11.7L8260.3,2943.4z M8354,2992.5l-70.1,7.2l-13.1,35l48.1,51.5L8354,2992.5z"/>
</g>
</svg>