<?xml version="1.0" encoding="utf-8"?>
<svg version="1.1" xmlns="http://www.w3.org/2000/svg" xmlns:xlink="http://www.w3.org/1999/xlink" x="0px" y="0px" viewBox="0 0 100 95.2" xml:space="preserve">
	<style type="text/css">
		.st0{fill-rule:evenodd;clip-rule:evenodd;fill:#333333;}
		.st1{fill:#333333;}
	</style>
	<g>
		<g transform="translate(243.818,110.3118)">
			<path class="st0" d="M-214.1-49.2h-11.6l0,0c-0.9,0-1.6,0.7-1.6,1.7l0,0l0,0v8.3l0,0l0,0c0,0.9,0.7,1.7,1.6,1.7l0,0
				h1.2h10.4v5.5h-14.5l0,0c-2.4,0-4.3-1.9-4.3-4.3v-14.2c0-2.4,1.9-4.3,4.3-4.3h14.5V-49.2z"/>
		</g>
		<g transform="translate(246.1925,119.0264)">
			<path class="st0" d="M-212.2-73.3c0,2.4-2,4.4-4.4,4.4h-18.7v-5.6h15.8l0,0c0.9,0,1.7-0.8,1.7-1.7l0,0v-18.6l0,0
				c0-0.9-0.7-1.7-1.7-1.7l0,0h-8.4l0,0c-0.9,0-1.7,0.7-1.7,1.7l0,0v8.4l0,0c0,0.9,0.7,1.7,1.7,1.7l0,0h6.8v5.6h-9.7
				c-2.4,0-4.4-2-4.4-4.4v-14.3c0-2.4,2-4.4,4.4-4.4h14.3c2.4,0,4.4,2,4.4,4.4L-212.2-73.3L-212.2-73.3z"/>
		</g>
		<g transform="translate(277.2978,100.6138)">
			<path class="st0" d="M-188.3-22.3h-5.5v-17.2h-3.9l0,0c-0.9,0-1.6,0.7-1.6,1.7l0,0v15.5h-5.5v-17.2h-3.9l0,0
				c-0.9,0-1.7,0.7-1.7,1.7l0,0v15.5h-5.5v-18.4c0-2.4,1.9-4.3,4.3-4.3h23.4L-188.3-22.3L-188.3-22.3z"/>
		</g>
		<g transform="translate(277.3066,119.0264)">
			<path class="st0" d="M-188.3-73.3c0,2.4-2,4.4-4.4,4.4h-18.7v-5.6h15.8l0,0c0.9,0,1.7-0.8,1.7-1.7l0,0v-18.6l0,0
				c0-0.9-0.7-1.7-1.7-1.7l0,0h-8.4l0,0c-0.9,0-1.7,0.7-1.7,1.7l0,0v8.4l0,0c0,0.9,0.7,1.7,1.7,1.7l0,0h6.8v5.6h-9.7
				c-2.4,0-4.4-2-4.4-4.4v-14.3c0-2.4,2-4.4,4.4-4.4h14.3c2.4,0,4.4,2,4.4,4.4L-188.3-73.3L-188.3-73.3z"/>
		</g>
		<g transform="translate(258.5686,131.166)">
			<path class="st0" d="M-202.7-107v8.4l0,0c0,0.9-0.7,1.7-1.7,1.7l0,0h-8.4l0,0c-0.9,0-1.7-0.8-1.7-1.7l0,0v-8.4l0,0
				c0-0.9,0.7-1.7,1.7-1.7l0,0h8.4l0,0C-203.4-108.7-202.7-107.9-202.7-107L-202.7-107z M-201.4-114.3h-14.3c-2.4,0-4.4,2-4.4,4.4
				v14.3c0,2.4,2,4.4,4.4,4.4h14.3c2.4,0,4.4-2,4.4-4.4v-14.3C-197-112.3-199-114.3-201.4-114.3"/>
		</g>
		<g transform="translate(256.022,109.3712)">
			<path class="st0" d="M-204.7-46.6v8.3c0,0.9-0.7,1.7-1.6,1.7l0,0l0,0h-8.3l0,0l0,0c-0.9,0-1.6-0.7-1.6-1.7v-8.3l0,0
				c0-0.9,0.7-1.7,1.6-1.7l0,0h8.3l0,0C-205.4-48.3-204.7-47.5-204.7-46.6L-204.7-46.6z M-203.4-53.8h-14.1c-2.4,0-4.3,1.9-4.3,4.3
				v14.1c0,2.4,1.9,4.3,4.3,4.3h14.1c2.4,0,4.3-1.9,4.3-4.3v-14.1C-199.1-51.9-201-53.8-203.4-53.8"/>
		</g>
		<g transform="translate(282.3085,95.1629)">
			<path class="st1" d="M-184.4-7.3c0,1.4-0.6,2.7-1.5,3.7c-0.9,0.9-2.2,1.5-3.6,1.5h-85.5c-1.4,0-2.7-0.6-3.6-1.5
				c-0.9-0.9-1.5-2.2-1.5-3.7v-80.7c0-1.4,0.6-2.7,1.5-3.6s2.2-1.5,3.6-1.5h85.5c1.4,0,2.7,0.6,3.6,1.5c0.9,0.9,1.5,2.2,1.5,3.6
				L-184.4-7.3L-184.4-7.3z M-184.4-93c-1.3-1.3-3.1-2.1-5.1-2.1h-85.5c-2,0-3.8,0.8-5.1,2.1c-1.3,1.3-2.1,3.1-2.1,5.1v80.7
				c0,2,0.8,3.8,2.1,5.1c1.3,1.3,3.1,2.1,5.1,2.1h85.5c2,0,3.8-0.8,5.1-2.1s2.1-3.1,2.1-5.1v-80.7C-182.3-89.9-183.1-91.7-184.4-93"/>
		</g>
	</g>
</svg>