<?xml version="1.0" encoding="utf-8"?>
<!-- Generator: Adobe Illustrator 23.0.3, SVG Export Plug-In . SVG Version: 6.00 Build 0)  -->
<svg version="1.1" baseProfile="basic" xmlns="http://www.w3.org/2000/svg" xmlns:xlink="http://www.w3.org/1999/xlink" x="0px" y="0px" 
	width="100px" height="95.2px" viewBox="0 0 100 95.2" xml:space="preserve">
<style type="text/css">
	.st0{fill-rule:evenodd;clip-rule:evenodd;fill:#333333;}
	.st1{fill:#333333;}
</style>
<path class="st0" d="M29.7,61.1H18.1l0,0c-0.9,0-1.6,0.7-1.6,1.7l0,0l0,0v8.3l0,0l0,0c0,0.9,0.7,1.7,1.6,1.7l0,0h1.2h10.4v5.5H15.2
	l0,0c-2.4,0-4.3-1.9-4.3-4.3V59.8c0-2.4,1.9-4.3,4.3-4.3h14.5L29.7,61.1L29.7,61.1z"/>
<path class="st0" d="M34,45.7c0,2.4-2,4.4-4.4,4.4H10.9v-5.6h15.8l0,0c0.9,0,1.7-0.8,1.7-1.7l0,0V24.2l0,0c0-0.9-0.7-1.7-1.7-1.7
	l0,0h-8.4l0,0c-0.9,0-1.7,0.7-1.7,1.7l0,0v8.4l0,0c0,0.9,0.7,1.7,1.7,1.7l0,0h6.8v5.6h-9.7c-2.4,0-4.4-2-4.4-4.4V21.2
	c0-2.4,2-4.4,4.4-4.4h14.3c2.4,0,4.4,2,4.4,4.4L34,45.7L34,45.7z"/>
<path class="st0" d="M89,78.3h-5.5V61.1h-3.9l0,0c-0.9,0-1.6,0.7-1.6,1.7l0,0v15.5h-5.5V61.1h-3.9l0,0c-0.9,0-1.7,0.7-1.7,1.7l0,0
	v15.5h-5.5V59.9c0-2.4,1.9-4.3,4.3-4.3h23.4L89,78.3L89,78.3z"/>
<path class="st0" d="M89,45.7c0,2.4-2,4.4-4.4,4.4H65.9v-5.6h15.8l0,0c0.9,0,1.7-0.8,1.7-1.7l0,0V24.2l0,0c0-0.9-0.7-1.7-1.7-1.7
	l0,0h-8.4l0,0c-0.9,0-1.7,0.7-1.7,1.7l0,0v8.4l0,0c0,0.9,0.7,1.7,1.7,1.7l0,0h6.8v5.6h-9.7c-2.4,0-4.4-2-4.4-4.4V21.2
	c0-2.4,2-4.4,4.4-4.4h14.3c2.4,0,4.4,2,4.4,4.4L89,45.7L89,45.7z"/>
<path class="st0" d="M55.9,24.2v8.4l0,0c0,0.9-0.7,1.7-1.7,1.7l0,0h-8.4l0,0c-0.9,0-1.7-0.8-1.7-1.7l0,0v-8.4l0,0
	c0-0.9,0.7-1.7,1.7-1.7l0,0h8.4l0,0C55.2,22.5,55.9,23.3,55.9,24.2L55.9,24.2z M57.2,16.9H42.9c-2.4,0-4.4,2-4.4,4.4v14.3
	c0,2.4,2,4.4,4.4,4.4h14.3c2.4,0,4.4-2,4.4-4.4V21.3C61.6,18.9,59.6,16.9,57.2,16.9"/>
<path class="st0" d="M51.3,62.8v8.3c0,0.9-0.7,1.7-1.6,1.7l0,0l0,0h-8.3l0,0l0,0c-0.9,0-1.6-0.7-1.6-1.7v-8.3l0,0
	c0-0.9,0.7-1.7,1.6-1.7l0,0h8.3l0,0C50.6,61.1,51.3,61.9,51.3,62.8L51.3,62.8z M52.6,55.6H38.5c-2.4,0-4.3,1.9-4.3,4.3V74
	c0,2.4,1.9,4.3,4.3,4.3h14.1c2.4,0,4.3-1.9,4.3-4.3V59.9C56.9,57.5,55,55.6,52.6,55.6"/>
<path class="st1" d="M98,87.9c0,1.4-0.6,2.7-1.5,3.7c-0.9,0.9-2.2,1.5-3.6,1.5H7.3c-1.4,0-2.7-0.6-3.6-1.5s-1.5-2.2-1.5-3.7V7.1
	c0-1.4,0.6-2.7,1.5-3.6S5.9,2,7.3,2h85.6c1.4,0,2.7,0.6,3.6,1.5C97.4,4.4,98,5.7,98,7.1V87.9L98,87.9z M98,2.1
	C96.7,0.8,94.9,0,92.9,0H7.3c-2,0-3.8,0.8-5.1,2.1C0.9,3.4,0.1,5.2,0.1,7.2V88c0,2,0.8,3.8,2.1,5.1c1.3,1.3,3.1,2.1,5.1,2.1h85.6
	c2,0,3.8-0.8,5.1-2.1c1.3-1.3,2.1-3.1,2.1-5.1V7.2C100.1,5.2,99.3,3.4,98,2.1"/>
</svg>