<?xml version="1.0" encoding="utf-8"?>
<svg version="1.1" xmlns="http://www.w3.org/2000/svg" xmlns:xlink="http://www.w3.org/1999/xlink" x="0px" y="0px"
	 viewBox="0 0 100 100" enable-background="new 0 0 100 100" xml:space="preserve">
	<g>
		<circle fill="#29ABE0" cx="50" cy="50" r="50"/>
		<g transform="translate(-37.579964,-135.49927)">
			<g transform="matrix(1.1421528,0,0,-1.1421528,265.93398,460.73095)">
				<g>
					<path fill="#FFFFFF" d="M-133.44,236.63c-2.57-0.32-4.66-0.08-4.66-0.08v15.73h3.16c2.09,0,4.1-0.87,5.47-2.45
						c0.96-1.11,1.73-2.68,1.73-4.85C-127.74,239.68-130.47,237.59-133.44,236.63 M-119.9,247.67c-0.92,4.87-3.54,7.9-6.23,9.78
						c-2.78,1.94-6.11,2.94-9.5,2.94h-48.09c-1.67,0-2.31-1.63-2.32-2.45c0-0.11,0-0.53,0-0.53s-0.08-21.28,0.07-32.64
						c0.45-6.71,7.18-6.71,7.18-6.71s21.95,0.06,32.47,0.13c0.49,0,0.99,0.06,1.47,0.18c5.99,1.5,6.61,7.07,6.55,10.17
						C-126.26,227.86-117.76,236.36-119.9,247.67"/>
					<path fill="#FF5E5B" d="M-162.49,226.88c0.52-0.26,0.86,0.06,0.86,0.06s7.65,6.99,11.1,11.01
						c3.07,3.6,3.27,9.67-2,11.93c-5.27,2.27-9.6-2.67-9.6-2.67c-3.76,4.13-9.45,3.92-12.08,1.13c-2.63-2.8-1.71-7.6,0.25-10.27
						c1.84-2.51,9.94-9.73,11.17-10.95C-162.79,227.12-162.7,227.03-162.49,226.88"/>
				</g>
			</g>
		</g>
	</g>
</svg>