<?xml version="1.0" encoding="utf-8"?>
<svg version="1.1" baseProfile="basic" xmlns="http://www.w3.org/2000/svg" xmlns:xlink="http://www.w3.org/1999/xlink" 
	x="0px" y="0px" viewBox="0 0 100 100" width="100px" height="100px" xml:space="preserve">
<style type="text/css">
	.st0{fill:#29ABE0;}
	.st1{fill:#FFFFFF;}
	.st2{fill:#FF5E5B;}
</style>
<circle class="st0" cx="50" cy="50" r="50"/>
<path class="st1" d="M75.9,55c-2.9,0.4-5.3,0.1-5.3,0.1v-18h3.6c2.4,0,4.7,1,6.2,2.8c1.1,1.3,2,3.1,2,5.5
	C82.5,51.5,79.3,53.9,75.9,55 M91.4,42.4c-1.1-5.6-4-9-7.1-11.2c-3.2-2.2-7-3.4-10.9-3.4H18.5c-1.9,0-2.6,1.9-2.6,2.8
	c0,0.1,0,0.6,0,0.6s-0.1,24.3,0.1,37.3c0.5,7.7,8.2,7.7,8.2,7.7s25.1-0.1,37.1-0.1c0.6,0,1.1-0.1,1.7-0.2c6.8-1.7,7.5-8.1,7.5-11.6
	C84.1,65,93.9,55.3,91.4,42.4"/>
<path class="st2" d="M42.8,66.1c0.6,0.3,1-0.1,1-0.1s8.7-8,12.7-12.6c3.5-4.1,3.7-11-2.3-13.6c-6-2.6-11,3-11,3
	c-4.3-4.7-10.8-4.5-13.8-1.3c-3,3.2-2,8.7,0.3,11.7c2.1,2.9,11.4,11.1,12.8,12.5C42.4,65.8,42.5,65.9,42.8,66.1"/>
</svg>