<?xml version="1.0" encoding="UTF-8" standalone="no"?>
<svg width="100%" height="100%" viewBox="0 0 11371 2838" version="1.1" xmlns="http://www.w3.org/2000/svg" xmlns:xlink="http://www.w3.org/1999/xlink" xml:space="preserve" xmlns:serif="http://www.serif.com/" style="fill-rule:evenodd;clip-rule:evenodd;stroke-linejoin:round;stroke-miterlimit:2;">
    <g transform="matrix(4.16667,0,0,4.16667,0,0)">
        <path d="M918.786,91.554L918.786,197.506L980.158,91.554L1035.73,91.554L964.853,213.258L1047.18,331.099L988.629,331.099L918.786,230.646L918.786,331.099L870.789,331.099L870.789,91.554L918.786,91.554Z" style="fill:rgb(19,117,188);fill-rule:nonzero;"/>
        <path d="M1182.47,171.799C1182.47,163.08 1179.3,155.404 1172.96,148.767C1166.71,142.694 1154.85,139.258 1143.23,139.258L1116.19,139.258L1116.19,205.385L1134.77,205.385L1134.77,205.531L1150.81,205.531C1168.36,205.531 1182.47,190.06 1182.47,171.799ZM1068.04,91.554L1146.21,91.554C1172.88,91.554 1194.44,101.627 1208.92,115.927C1223.5,130.507 1232.1,143.811 1232.1,170.314L1232.1,176.554C1232.1,192.702 1227.05,207.91 1216.94,222.175C1208.53,233.953 1201.86,238.966 1188.26,244.318L1243.99,331.099L1185.14,331.099L1116.34,225.146L1116.34,331.099L1068.19,331.099L1068.04,91.554Z" style="fill:rgb(19,117,188);fill-rule:nonzero;"/>
        <path d="M1409.15,90.962L1409.15,138.958L1312.86,138.958L1312.86,187.255L1385.08,187.255L1385.08,235.249L1312.86,235.249L1312.86,283.546L1409.15,283.546L1409.15,331.397L1264.71,331.397L1264.71,90.962L1409.15,90.962Z" style="fill:rgb(19,117,188);fill-rule:nonzero;"/>
        <rect x="1430.01" y="91.554" width="48.15" height="239.545" style="fill:rgb(19,117,188);fill-rule:nonzero;"/>
        <path d="M1574.65,283.942C1587.95,283.942 1602.62,272.9 1602.62,259.603C1602.62,237.731 1573.27,234.684 1556.7,228.943C1527.5,218.99 1501.71,195.012 1501.71,162.39C1501.71,121.994 1534.47,89.444 1574.87,89.444C1611.71,89.444 1642.22,116.765 1647.16,152.29L1599.35,162.39C1599.35,149.241 1588.31,138.194 1575.16,138.194C1561.79,138.194 1550.75,149.241 1550.75,162.537C1550.75,184.113 1578.07,189.854 1594.7,194.795C1624.93,203.514 1651.59,226.545 1651.59,259.894C1651.59,300.29 1615.34,332.909 1575.02,332.909C1537.96,332.909 1504.47,305.739 1499.02,270.064L1546.83,259.894C1546.83,273.26 1561.36,284.159 1574.87,284.159L1574.65,283.942Z" style="fill:rgb(19,117,188);fill-rule:nonzero;"/>
        <path d="M1816.89,90.962L1816.89,138.958L1720.6,138.958L1720.6,187.255L1792.82,187.255L1792.82,235.249L1720.6,235.249L1720.6,283.546L1816.89,283.546L1816.89,331.397L1672.45,331.397L1672.45,90.962L1816.89,90.962Z" style="fill:rgb(19,117,188);fill-rule:nonzero;"/>
        <path d="M1901.35,139.254L1885.75,139.254L1885.75,283.1L1901.8,283.1C1944.98,283.1 1973.13,254.433 1973.13,211.179C1973.13,168.316 1944.5,139.254 1901.35,139.254ZM1901.5,91.554C1939.13,91.554 1968.58,106.502 1989.03,126.772C2010.42,148.271 2021.12,176.532 2021.12,211.551C2021.12,246.571 2010.42,274.731 1989.03,296.028C1965.45,319.409 1936.27,331.099 1901.5,331.099L1837.75,331.099L1837.75,91.706L1901.5,91.706L1901.5,91.554Z" style="fill:rgb(19,117,188);fill-rule:nonzero;"/>
        <path d="M2186.43,90.962L2186.43,138.958L2090.14,138.958L2090.14,187.255L2162.36,187.255L2162.36,235.249L2090.14,235.249L2090.14,283.546L2186.43,283.546L2186.43,331.397L2041.99,331.397L2041.99,90.962L2186.43,90.962Z" style="fill:rgb(19,117,188);fill-rule:nonzero;"/>
        <path d="M2321.72,171.799C2321.72,163.08 2318.54,155.404 2312.2,148.767C2305.96,142.694 2294.09,139.258 2282.48,139.258L2255.44,139.258L2255.44,205.385L2274.02,205.385L2274.02,205.531L2290.06,205.531C2307.61,205.531 2321.72,190.06 2321.72,171.799ZM2207.29,91.554L2285.46,91.554C2312.13,91.554 2333.69,101.627 2348.16,115.927C2362.75,130.507 2371.35,143.811 2371.35,170.314L2371.35,176.554C2371.35,192.702 2366.3,207.91 2356.19,222.175C2347.78,233.953 2341.11,238.966 2327.51,244.318L2383.23,331.099L2324.39,331.099L2255.59,225.146L2255.59,331.099L2207.44,331.099L2207.29,91.554Z" style="fill:rgb(19,117,188);fill-rule:nonzero;"/>
        <rect x="2493.14" y="91.554" width="48.15" height="239.545" style="fill:rgb(19,117,188);fill-rule:nonzero;"/>
        <path d="M2728.26,91.554L2728.26,139.258L2669.41,139.258L2669.41,331.099L2621.11,331.099L2621.11,139.258L2562.12,139.258L2562.12,91.554L2728.26,91.554Z" style="fill:rgb(19,117,188);fill-rule:nonzero;"/>
        <path d="M913.445,555.233C922.816,555.233 933.161,547.448 933.161,538.081C933.161,522.668 912.472,520.52 900.798,516.474C880.217,509.457 862.038,492.562 862.038,469.569C862.038,441.104 885.132,418.166 913.601,418.166C939.56,418.166 961.063,437.415 964.546,462.455L930.853,469.569C930.853,460.304 923.072,452.523 913.802,452.523C904.381,452.523 896.601,460.304 896.601,469.675C896.601,484.883 915.854,488.924 927.579,492.407C948.877,498.551 967.669,514.783 967.669,538.283C967.669,566.753 942.121,589.742 913.701,589.742C887.591,589.742 863.985,570.592 860.146,545.45L893.836,538.283C893.836,547.705 904.074,555.384 913.601,555.384L913.445,555.233Z" style="fill:rgb(35,31,32);fill-rule:nonzero;"/>
        <path d="M1212.81,419.232L1212.81,453.058L1144.95,453.058L1144.95,487.092L1195.84,487.092L1195.84,520.919L1144.95,520.919L1144.95,554.954L1212.81,554.954L1212.81,588.675L1111.02,588.675L1111.02,419.232L1212.81,419.232Z" style="fill:rgb(35,31,32);fill-rule:nonzero;"/>
        <path d="M1436.79,476.202C1436.79,470.058 1434.55,464.647 1430.08,459.97C1425.68,455.688 1417.32,453.267 1409.14,453.267L1390.08,453.267L1390.08,499.87L1403.17,499.87L1403.17,499.974L1414.48,499.974C1426.84,499.974 1436.79,489.071 1436.79,476.202ZM1356.15,419.651L1411.23,419.651C1430.03,419.651 1445.23,426.75 1455.43,436.826C1465.7,447.105 1471.76,456.48 1471.76,475.154L1471.76,479.553C1471.76,490.933 1468.2,501.65 1461.08,511.703C1455.15,520.004 1450.46,523.536 1440.87,527.306L1480.14,588.465L1438.67,588.465L1390.18,513.799L1390.18,588.465L1356.25,588.465L1356.15,419.651Z" style="fill:rgb(35,31,32);fill-rule:nonzero;"/>
        <path d="M1693.23,592.235L1617.1,419.651L1653.02,419.651L1693.13,512.121L1733.34,419.651L1769.68,419.651L1693.23,592.235Z" style="fill:rgb(35,31,32);fill-rule:nonzero;"/>
        <rect x="1913.02" y="419.651" width="33.93" height="168.814" style="fill:rgb(35,31,32);fill-rule:nonzero;"/>
        <path d="M2175.86,589.617C2152.26,589.547 2132.12,581.239 2115.43,564.693C2098.68,547.937 2090.3,527.76 2090.3,504.163C2090.3,480.636 2098.68,460.424 2115.43,443.528C2132.26,426.702 2152.4,418.291 2175.86,418.291L2175.75,418.709C2201.82,418.709 2222.55,430.286 2236.49,443.738L2212.3,467.929C2202.11,457.875 2190,452.848 2175.96,452.848C2161.72,452.848 2149.64,457.875 2139.73,467.929C2129.68,478.121 2124.65,490.235 2124.65,504.268C2124.65,518.44 2129.68,530.553 2139.73,540.607C2149.71,550.59 2161.79,555.582 2175.96,555.582C2190.21,555.582 2202.35,550.555 2212.41,540.502L2236.6,564.693C2222.74,578.423 2202.19,589.617 2175.86,589.617Z" style="fill:rgb(35,31,32);fill-rule:nonzero;"/>
        <path d="M2481.73,419.232L2481.73,453.058L2413.87,453.058L2413.87,487.092L2464.77,487.092L2464.77,520.919L2413.87,520.919L2413.87,554.954L2481.73,554.954L2481.73,588.675L2379.94,588.675L2379.94,419.232L2481.73,419.232Z" style="fill:rgb(35,31,32);fill-rule:nonzero;"/>
        <path d="M2672.13,555.233C2681.5,555.233 2691.84,547.448 2691.84,538.081C2691.84,522.668 2671.15,520.52 2659.47,516.474C2638.89,509.457 2620.71,492.562 2620.71,469.569C2620.71,441.104 2643.81,418.166 2672.28,418.166C2698.24,418.166 2719.74,437.415 2723.22,462.455L2689.53,469.569C2689.53,460.304 2681.75,452.523 2672.48,452.523C2663.06,452.523 2655.28,460.304 2655.28,469.675C2655.28,484.883 2674.53,488.924 2686.26,492.407C2707.55,498.551 2726.35,514.783 2726.35,538.283C2726.35,566.753 2700.8,589.742 2672.38,589.742C2646.27,589.742 2622.66,570.592 2618.82,545.45L2652.52,538.283C2652.52,547.705 2662.76,555.384 2672.28,555.384L2672.13,555.233Z" style="fill:rgb(35,31,32);fill-rule:nonzero;"/>
        <path d="M245.931,94.889L245.931,586.792L0,340.862L245.931,94.889Z" style="fill:rgb(88,89,91);fill-rule:nonzero;"/>
        <path d="M363.852,94.165L246.655,94.165C371.302,-30.482 573.343,-30.482 697.989,94.165L535.071,94.165L363.852,266.278L363.852,94.165Z" style="fill:rgb(19,117,188);fill-rule:nonzero;"/>
        <path d="M801.266,340.862C801.266,429.451 767.465,517.999 699.905,585.601L697.989,587.516C696.329,589.176 694.669,590.794 693.009,592.326L458.231,358.869L374.835,442.222L523.62,592.37L693.009,592.37C568.106,712.078 369.94,710.502 246.91,587.771L363.852,587.771L363.852,433.921L699.905,96.08C767.465,163.682 801.266,252.272 801.266,340.862Z" style="fill:rgb(19,117,188);fill-rule:nonzero;"/>
    </g>
</svg>