<?xml version="1.0" encoding="utf-8"?>
<svg version="1.1" xmlns="http://www.w3.org/2000/svg" xmlns:xlink="http://www.w3.org/1999/xlink" x="0px" y="0px"
	 viewBox="0 0 100 100" style="enable-background:new 0 0 100 100;" width="100px" height="100px" xml:space="preserve">
	<style type="text/css">
		.st0{fill:#FFFFFF;}
		.st1{fill:#455A64;}
	</style>

	<path class="st0" d="M100,88.9c0,6.1-5,11.1-11.1,11.1H11.1C5,100,0,95,0,88.9V11.1C0,5,5,0,11.1,0h77.8C95,0,100,5,100,11.1V88.9z"/>
	<path class="st1" d="M34.6,76.8c-0.8,0-1.6-0.2-2.3-0.4l0,0.1l-10.2-3c1.8,5.2,6.7,9,12.5,9c7.3,0,13.3-5.9,13.3-13.3
		S41.9,56,34.6,56c-3.2,0-6,1.2-8.3,3l9.8,2.8c0.1,0,0.2,0.1,0.2,0.1l0.1,0.1c3.3,0.8,5.7,3.8,5.7,7.3
		C42.2,73.4,38.8,76.8,34.6,76.8z"/>
	<path class="st1" d="M69.2,50.8c9,0,16.2-7.3,16.2-16.2s-7.3-16.2-16.2-16.2c-8.9,0-16.2,7.3-16.2,16.2S60.3,50.8,69.2,50.8z
		M69.2,23.4c6.2,0,11.3,5,11.3,11.3c0,6.2-5,11.3-11.3,11.3S58,40.8,58,34.6C58,28.4,63,23.4,69.2,23.4z"/>
	<path class="st1" d="M88.9,0H11.1C5,0,0,5,0,11.1v40.3L19.5,57c3.6-4.4,9-7.3,15.1-7.3c0.2,0,0.4,0.1,0.6,0.1l10.8-14.9
		c0-0.1,0-0.2,0-0.3c0-12.9,10.4-23.3,23.3-23.3s23.3,10.4,23.3,23.3c0,12.9-10.4,23.3-23.3,23.3c-0.1,0-0.2,0-0.4,0L54.1,68.6
		c0,0.2,0.1,0.4,0.1,0.6c0,10.8-8.7,19.5-19.5,19.5c-10,0-18.1-7.5-19.3-17.2L0,67.1v21.8C0,95,5,100,11.1,100h77.8
		c6.1,0,11.1-5,11.1-11.1V11.1C100,5,95,0,88.9,0z"/>
</svg>